<?xml version="1.0" encoding="utf-8"?>
<!-- Generator: Adobe Illustrator 25.4.1, SVG Export Plug-In . SVG Version: 6.00 Build 0)  -->
<svg version="1.1" id="Layer_1" xmlns="http://www.w3.org/2000/svg" xmlns:xlink="http://www.w3.org/1999/xlink" x="0px" y="0px"
	 viewBox="0 0 107 87" style="enable-background:new 0 0 107 87;" xml:space="preserve">
<style type="text/css">
	.st0{fill:#FFFFFF;}
</style>
<g id="BLocking">
</g>
<g id="Type">
</g>
<g id="Layer_6">
	<g>
		<path class="st0" d="M1.93,76.07c11.56,1.13,21.9-1.76,31.1-8.79c-4.47-0.23-8.53-1.59-12.11-4.26
			c-3.58-2.67-6.07-6.15-7.55-10.51c3.2,0.55,6.29,0.48,9.34-0.39c-4.87-1.17-8.95-3.61-12.09-7.52s-4.69-8.39-4.68-13.37
			c1.57,0.58,3.07,1.2,4.61,1.7s3.14,0.7,4.79,0.7c-4.48-3.25-7.48-7.49-8.69-12.89c-1.21-5.38-0.41-10.49,2.3-15.37
			C9.45,5.95,9.9,6.48,10.35,7c3.08,3.53,6.53,6.65,10.34,9.37c4.68,3.35,9.74,5.99,15.17,7.88c4.41,1.53,8.93,2.57,13.58,3.02
			c0.93,0.09,1.86,0.15,2.79,0.24c0.37,0.04,0.45-0.1,0.37-0.43c-0.37-1.65-0.49-3.33-0.45-5.02c0.1-3.53,1.01-6.83,2.77-9.89
			c2.23-3.88,5.37-6.79,9.42-8.7C67.09,2.2,69.97,1.55,73,1.51c3.52-0.05,6.84,0.69,9.98,2.28c2.04,1.04,3.88,2.37,5.47,4.01
			c0.29,0.3,0.56,0.36,0.95,0.28c4.32-0.93,8.4-2.47,12.24-4.66c0.16-0.09,0.32-0.17,0.53-0.22c-1.6,4.91-4.65,8.68-8.96,11.5
			c4.1-0.46,8.01-1.54,11.86-3.22c-0.1,0.17-0.14,0.27-0.2,0.35c-2.73,3.96-6.02,7.39-9.89,10.25c-0.3,0.22-0.42,0.46-0.41,0.83
			c0.14,4.5-0.18,8.97-1.04,13.4c-1.23,6.27-3.34,12.23-6.36,17.87c-2.23,4.16-4.89,8.02-8.01,11.58c-4,4.56-8.58,8.41-13.78,11.52
			c-4.94,2.96-10.23,5.1-15.82,6.46c-3.71,0.9-7.47,1.5-11.28,1.65c-2.39,0.09-4.79,0.17-7.17,0.05
			c-7.27-0.37-14.27-2.02-20.94-4.95c-2.76-1.21-5.41-2.62-7.96-4.22C2.13,76.21,2.06,76.16,1.93,76.07z"/>
	</g>
</g>
</svg>
